<?xml version="1.0" encoding="utf-8"?>
<svg xmlns="http://www.w3.org/2000/svg"
	xmlns:xlink="http://www.w3.org/1999/xlink"
	width="23px" height="21px" viewBox="0 0 23 21">
<filter filterUnits="objectBoundingBox" x="0.00" y="0.00" width="100.00" height="100.00" id="filter0">
<feFlood flood-color="rgb(255,255,255)" result="coFloodOut1"/>
<feComposite in="coFloodOut1" in2="SourceAlpha" operator="in" result="coOverlay1"/>
<feBlend in="coOverlay1" in2="SourceGraphic" mode="normal" result="colorOverlay1"/>
</filter>
<path fillRule="evenodd" d="M-0 21C-0 21-0 11.9-0 11.9-0 11.9 23 11.9 23 11.9 23 11.9 23 21 23 21 23 21-0 21-0 21ZM 10.78 13.3C 10.78 13.69 11.1 14 11.5 14 11.9 14 12.22 13.69 12.22 13.3 12.22 13.3 10.78 13.3 10.78 13.3ZM 21.56 13.3C 21.56 13.3 13.66 13.3 13.66 13.3 13.66 14.46 12.69 15.4 11.5 15.4 10.31 15.4 9.34 14.46 9.34 13.3 9.34 13.3 1.44 13.3 1.44 13.3 1.44 13.3 1.44 19.6 1.44 19.6 1.44 19.6 21.56 19.6 21.56 19.6 21.56 19.6 21.56 13.3 21.56 13.3ZM 21.56 7.7C 21.56 7.7 1.44 7.7 1.44 7.7 1.44 7.7 1.44 10.5 1.44 10.5 1.44 10.5-0 10.5-0 10.5-0 10.5-0 6.3-0 6.3-0 6.3 23 6.3 23 6.3 23 6.3 23 10.5 23 10.5 23 10.5 21.56 10.5 21.56 10.5 21.56 10.5 21.56 7.7 21.56 7.7ZM 13.66 3.5C 13.66 2.34 12.69 1.4 11.5 1.4 10.31 1.4 9.34 2.34 9.34 3.5 9.34 3.5 9.34 4.9 9.34 4.9 9.34 4.9 6.48 4.9 6.48 4.9 6.48 4.9 6.48 3.5 6.48 3.5 6.48 3.5 7.91 3.5 7.91 3.5 7.91 1.57 9.52-0 11.5-0 13.48-0 15.09 1.57 15.09 3.5 15.09 3.5 16.53 3.5 16.53 3.5 16.53 3.5 16.53 4.9 16.53 4.9 16.53 4.9 13.66 4.9 13.66 4.9 13.66 4.9 13.66 3.5 13.66 3.5Z" fill="rgb(155,254,188)" filter="url(#filter0)"/></svg>