<?xml version="1.0" encoding="utf-8"?>
<svg xmlns="http://www.w3.org/2000/svg"
	xmlns:xlink="http://www.w3.org/1999/xlink"
	width="23px" height="23px" viewBox="0 0 23 23">
<filter filterUnits="objectBoundingBox" x="0.00" y="0.00" width="100.00" height="100.00" id="filter0">
<feFlood flood-color="rgb(255,255,255)" result="coFloodOut1"/>
<feComposite in="coFloodOut1" in2="SourceAlpha" operator="in" result="coOverlay1"/>
<feBlend in="coOverlay1" in2="SourceGraphic" mode="normal" result="colorOverlay1"/>
</filter>
<path fillRule="evenodd" d="M 11.5 11.5C 11.5 11.5 11.5-0 11.5-0 11.5-0 12.22-0 12.22-0 17.76-0 23 5.24 23 10.78 23 10.78 23 11.5 23 11.5 23 11.5 11.5 11.5 11.5 11.5ZM 12.94 1.47C 12.94 1.47 12.94 10.06 12.94 10.06 12.94 10.06 21.53 10.06 21.53 10.06 21.13 5.77 17.23 1.87 12.94 1.47ZM 10.07 21.56C 14.82 21.56 18.69 17.69 18.69 12.93 18.69 12.93 20.13 12.93 20.13 12.93 20.13 18.48 15.61 23 10.07 23 4.52 23 0 18.48 0 12.93 0 7.39 4.52 2.87 10.07 2.87 10.07 2.87 10.07 4.31 10.07 4.31 5.31 4.31 1.44 8.18 1.44 12.93 1.44 17.69 5.31 21.56 10.07 21.56Z" fill="rgb(155,254,188)" filter="url(#filter0)"/></svg>