<?xml version="1.0" encoding="utf-8"?>
<svg xmlns="http://www.w3.org/2000/svg"
	xmlns:xlink="http://www.w3.org/1999/xlink"
	width="23px" height="19px" viewBox="0 0 23 19">
<filter filterUnits="objectBoundingBox" x="0.00" y="0.00" width="100.00" height="100.00" id="filter0">
<feFlood flood-color="rgb(255,255,255)" result="coFloodOut1"/>
<feComposite in="coFloodOut1" in2="SourceAlpha" operator="in" result="coOverlay1"/>
<feBlend in="coOverlay1" in2="SourceGraphic" mode="normal" result="colorOverlay1"/>
</filter>
<path fillRule="evenodd" d="M 22.87 9.13C 22.73 9.33 22.51 9.43 22.29 9.43 22.14 9.43 22 9.39 21.87 9.29 21.87 9.29 20.45 8.24 20.45 8.24 20.45 8.24 20.45 18.27 20.45 18.27 20.45 18.67 20.13 19 19.73 19 19.73 19 13.93 19 13.93 19 13.53 19 13.21 18.67 13.21 18.27 13.21 18.27 13.21 11.4 13.21 11.4 13.21 11.4 9.81 11.4 9.81 11.4 9.81 11.4 9.81 18.27 9.81 18.27 9.81 18.67 9.49 19 9.09 19 9.09 19 3.29 19 3.29 19 2.89 19 2.57 18.67 2.57 18.27 2.57 18.27 2.57 8.24 2.57 8.24 2.57 8.24 1.15 9.29 1.15 9.29 0.83 9.53 0.38 9.46 0.15 9.13-0.09 8.8-0.02 8.35 0.31 8.11 0.31 8.11 11.09 0.14 11.09 0.14 11.34-0.05 11.68-0.05 11.93 0.14 11.93 0.14 22.71 8.11 22.71 8.11 23.03 8.35 23.11 8.8 22.87 9.13ZM 11.51 1.63C 11.51 1.63 4.01 7.18 4.01 7.18 4.01 7.18 4.01 17.54 4.01 17.54 4.01 17.54 8.37 17.54 8.37 17.54 8.37 17.54 8.37 10.67 8.37 10.67 8.37 10.27 8.7 9.94 9.09 9.94 9.09 9.94 13.93 9.94 13.93 9.94 14.32 9.94 14.65 10.27 14.65 10.67 14.65 10.67 14.65 17.54 14.65 17.54 14.65 17.54 19.01 17.54 19.01 17.54 19.01 17.54 19.01 7.18 19.01 7.18 19.01 7.18 11.51 1.63 11.51 1.63Z" fill="rgb(185,142,102)" filter="url(#filter0)"/></svg>