<?xml version="1.0" encoding="utf-8"?>
<svg xmlns="http://www.w3.org/2000/svg"
	xmlns:xlink="http://www.w3.org/1999/xlink"
	width="23px" height="18px" viewBox="0 0 23 18">
<filter filterUnits="objectBoundingBox" x="0.00" y="0.00" width="100.00" height="100.00" id="filter0">
<feFlood flood-color="rgb(255,255,255)" result="coFloodOut1"/>
<feComposite in="coFloodOut1" in2="SourceAlpha" operator="in" result="coOverlay1"/>
<feBlend in="coOverlay1" in2="SourceGraphic" mode="normal" result="colorOverlay1"/>
</filter>
<path fillRule="evenodd" d="M 4.31 5.54C 4.31 5.54 18.69 5.54 18.69 5.54 18.69 5.54 18.69 6.92 18.69 6.92 18.69 6.92 4.31 6.92 4.31 6.92 4.31 6.92 4.31 5.54 4.31 5.54ZM 18.69 12.46C 18.69 12.46 4.31 12.46 4.31 12.46 4.31 12.46 4.31 11.08 4.31 11.08 4.31 11.08 18.69 11.08 18.69 11.08 18.69 11.08 18.69 12.46 18.69 12.46ZM 4.31 8.31C 4.31 8.31 18.69 8.31 18.69 8.31 18.69 8.31 18.69 9.69 18.69 9.69 18.69 9.69 4.31 9.69 4.31 9.69 4.31 9.69 4.31 8.31 4.31 8.31ZM-0 18C-0 18-0 2.77-0 2.77-0 2.77 1.44 2.77 1.44 2.77 1.44 2.77 1.44 16.61 1.44 16.61 1.44 16.61 21.56 16.61 21.56 16.61 21.56 16.61 21.56 1.38 21.56 1.38 21.56 1.38-0 1.38-0 1.38-0 1.38-0-0-0-0-0-0 23-0 23-0 23-0 23 18 23 18 23 18-0 18-0 18Z" fill="rgb(155,254,188)" filter="url(#filter0)"/></svg>