<?xml version="1.0" encoding="utf-8"?>
<svg xmlns="http://www.w3.org/2000/svg"
	xmlns:xlink="http://www.w3.org/1999/xlink"
	width="23px" height="23px" viewBox="0 0 23 23">
<filter filterUnits="objectBoundingBox" x="0.00" y="0.00" width="100.00" height="100.00" id="filter0">
<feFlood flood-color="rgb(255,255,255)" result="coFloodOut1"/>
<feComposite in="coFloodOut1" in2="SourceAlpha" operator="in" result="coOverlay1"/>
<feBlend in="coOverlay1" in2="SourceGraphic" mode="normal" result="colorOverlay1"/>
</filter>
<path fillRule="evenodd" d="M 22.36 22.37C 21.94 22.79 21.39 23 20.83 23 20.28 23 19.73 22.79 19.31 22.37 19.31 22.37 15.3 18.48 15.3 18.48 15.3 18.48 16.3 17.45 16.3 17.45 16.3 17.45 20.32 21.35 20.32 21.35 20.61 21.63 21.06 21.63 21.34 21.35 21.48 21.22 21.55 21.04 21.55 20.84 21.55 20.65 21.48 20.47 21.34 20.34 21.34 20.34 17.44 16.31 17.44 16.31 17.44 16.31 18.47 15.31 18.47 15.31 18.47 15.31 22.37 19.33 22.37 19.33 22.77 19.73 22.99 20.27 22.99 20.84 22.99 21.42 22.77 21.96 22.36 22.37ZM 9.33 18.69C 4.18 18.69-0.01 14.5-0.01 9.34-0.01 4.19 4.18 0 9.33 0 14.48 0 18.68 4.19 18.68 9.34 18.68 14.5 14.48 18.69 9.33 18.69ZM 9.33 1.44C 4.97 1.44 1.43 4.98 1.43 9.34 1.43 13.7 4.97 17.25 9.33 17.25 13.69 17.25 17.24 13.7 17.24 9.34 17.24 4.98 13.69 1.44 9.33 1.44ZM 5.27 13.41C 3.03 11.17 3.03 7.52 5.27 5.28 5.27 5.28 6.29 6.29 6.29 6.29 4.61 7.98 4.61 10.71 6.29 12.39 6.29 12.39 5.27 13.41 5.27 13.41Z" fill="rgb(155,254,188)" filter="url(#filter0)"/></svg>