<?xml version="1.0" encoding="utf-8"?>
<svg xmlns="http://www.w3.org/2000/svg"
	xmlns:xlink="http://www.w3.org/1999/xlink"
	width="23px" height="21px" viewBox="0 0 23 21">
<filter filterUnits="objectBoundingBox" x="0.00" y="0.00" width="100.00" height="100.00" id="filter0">
<feFlood flood-color="rgb(255,255,255)" result="coFloodOut1"/>
<feComposite in="coFloodOut1" in2="SourceAlpha" operator="in" result="coOverlay1"/>
<feBlend in="coOverlay1" in2="SourceGraphic" mode="normal" result="colorOverlay1"/>
</filter>
<path fillRule="evenodd" d="M 18.69 7.09C 18.69 8.27 17.72 9.23 16.53 9.23 15.34 9.23 14.37 8.27 14.37 7.09 14.37 5.91 15.34 4.95 16.53 4.95 17.72 4.95 18.69 5.91 18.69 7.09ZM 15.81 7.09C 15.81 7.48 16.13 7.8 16.53 7.8 16.93 7.8 17.25 7.48 17.25 7.09 17.25 6.69 16.93 6.37 16.53 6.37 16.13 6.37 15.81 6.69 15.81 7.09ZM 13.66 7.09C 13.66 8.27 12.69 9.23 11.5 9.23 10.31 9.23 9.34 8.27 9.34 7.09 9.34 5.91 10.31 4.95 11.5 4.95 12.69 4.95 13.66 5.91 13.66 7.09ZM 10.78 7.09C 10.78 7.48 11.1 7.8 11.5 7.8 11.9 7.8 12.22 7.48 12.22 7.09 12.22 6.69 11.9 6.37 11.5 6.37 11.1 6.37 10.78 6.69 10.78 7.09ZM 6.47 14.98C 6.47 14.98 6.47 13.55 6.47 13.55 6.47 13.55 21.56 13.55 21.56 13.55 21.56 13.55 21.56 1.43 21.56 1.43 21.56 1.43 1.44 1.43 1.44 1.43 1.44 1.43 1.44 16.81 1.44 16.81 1.44 16.81 3.74 13.83 3.74 13.83 3.74 13.83 4.88 14.7 4.88 14.7 4.88 14.7-0 21-0 21-0 21-0-0-0-0-0-0 23-0 23-0 23-0 23 14.98 23 14.98 23 14.98 6.47 14.98 6.47 14.98ZM 6.47 4.95C 7.66 4.95 8.62 5.91 8.62 7.09 8.62 8.27 7.66 9.23 6.47 9.23 5.28 9.23 4.31 8.27 4.31 7.09 4.31 5.91 5.28 4.95 6.47 4.95ZM 6.47 7.8C 6.86 7.8 7.19 7.48 7.19 7.09 7.19 6.69 6.86 6.37 6.47 6.37 6.07 6.37 5.75 6.69 5.75 7.09 5.75 7.48 6.07 7.8 6.47 7.8Z" fill="rgb(155,254,188)" filter="url(#filter0)"/></svg>