<?xml version="1.0" encoding="utf-8"?>
<svg xmlns="http://www.w3.org/2000/svg"
	xmlns:xlink="http://www.w3.org/1999/xlink"
	width="23px" height="23px" viewBox="0 0 23 23">
<filter filterUnits="objectBoundingBox" x="0.00" y="0.00" width="100.00" height="100.00" id="filter0">
<feFlood flood-color="rgb(255,255,255)" result="coFloodOut1"/>
<feComposite in="coFloodOut1" in2="SourceAlpha" operator="in" result="coOverlay1"/>
<feBlend in="coOverlay1" in2="SourceGraphic" mode="normal" result="colorOverlay1"/>
</filter>
<path fillRule="evenodd" d="M 18.7 21.56C 18.7 21.56 18.7 20.12 18.7 20.12 18.7 20.12 21.35 20.12 21.35 20.12 21.35 20.12 20.82 16.39 20.82 16.39 20.82 16.39 18.53 15.77 18.53 15.77 18.53 15.77 18.88 14.38 18.88 14.38 18.88 14.38 22.1 15.24 22.1 15.24 22.1 15.24 23 21.56 23 21.56 23 21.56 18.7 21.56 18.7 21.56ZM 16.56 12.94C 16.56 12.94 16.56 11.5 16.56 11.5 18.53 11.5 20.14 9.89 20.14 7.91 20.14 5.92 18.53 4.31 16.56 4.31 16.56 4.31 16.56 2.87 16.56 2.87 19.32 2.87 21.57 5.13 21.57 7.91 21.57 10.68 19.32 12.94 16.56 12.94ZM-0 23C-0 23 0.88 15.51 0.88 15.51 0.88 15.51 4.26 14.41 4.26 14.41 4.26 14.41 4.7 15.78 4.7 15.78 4.7 15.78 2.2 16.59 2.2 16.59 2.2 16.59 1.61 21.56 1.61 21.56 1.61 21.56 15.75 21.56 15.75 21.56 15.75 21.56 15.16 16.59 15.16 16.59 15.16 16.59 12.66 15.78 12.66 15.78 12.66 15.78 13.1 14.41 13.1 14.41 13.1 14.41 16.48 15.51 16.48 15.51 16.48 15.51 17.36 23 17.36 23 17.36 23-0 23-0 23ZM 8.68 12.94C 5.13 12.94 2.24 10.04 2.24 6.47 2.24 2.9 5.13-0 8.68-0 12.23-0 15.12 2.9 15.12 6.47 15.12 10.04 12.23 12.94 8.68 12.94ZM 8.68 1.44C 5.92 1.44 3.67 3.69 3.67 6.47 3.67 9.24 5.92 11.5 8.68 11.5 11.44 11.5 13.69 9.24 13.69 6.47 13.69 3.69 11.44 1.44 8.68 1.44Z" fill="rgb(155,254,188)" filter="url(#filter0)"/></svg>