<?xml version="1.0" encoding="utf-8"?>
<svg xmlns="http://www.w3.org/2000/svg"
	xmlns:xlink="http://www.w3.org/1999/xlink"
	width="25px" height="18px" viewBox="0 0 25 18">
<filter filterUnits="objectBoundingBox" x="0.00" y="0.00" width="100.00" height="100.00" id="filter0">
<feFlood flood-color="rgb(255,255,255)" result="coFloodOut1"/>
<feComposite in="coFloodOut1" in2="SourceAlpha" operator="in" result="coOverlay1"/>
<feBlend in="coOverlay1" in2="SourceGraphic" mode="normal" result="colorOverlay1"/>
</filter>
<path fillRule="evenodd" d="M 17.78 16.12C 17.78 16.12 18.16 14.56 18.16 14.56 18.16 14.56 23.44 15.92 23.44 15.92 23.44 15.92 23.44 6.68 23.44 6.68 23.44 6.68 18.16 8.04 18.16 8.04 18.16 8.04 17.78 6.48 17.78 6.48 17.78 6.48 25 4.61 25 4.61 25 4.61 25 17.99 25 17.99 25 17.99 17.78 16.12 17.78 16.12ZM 3.12 8.07C 3.12 8.07 10.91 8.07 10.91 8.07 10.91 8.07 10.91 9.68 10.91 9.68 10.91 9.68 3.12 9.68 3.12 9.68 3.12 9.68 3.12 8.07 3.12 8.07ZM-0 4.84C-0 4.84 10.91 4.84 10.91 4.84 10.91 4.84 10.91 6.45 10.91 6.45 10.91 6.45 1.56 6.45 1.56 6.45 1.56 6.45 1.56 16.15 1.56 16.15 1.56 16.15 14.06 16.15 14.06 16.15 14.06 16.15 14.06 3.1 14.06 3.1 14.06 3.1 5.35 1.59 5.35 1.59 5.35 1.59 5.61 0 5.61 0 5.61 0 15.62 1.73 15.62 1.73 15.62 1.73 15.62 17.76 15.62 17.76 15.62 17.76-0 17.76-0 17.76-0 17.76-0 4.84-0 4.84Z" fill="rgb(155,254,188)" filter="url(#filter0)"/></svg>